<svg xmlns="http://www.w3.org/2000/svg" xmlns:xlink="http://www.w3.org/1999/xlink" version="1.1" width="56" height="56" enable-background="new 0 0 100 100" xml:space="preserve"><rect id="backgroundrect" width="100%" height="100%" x="0" y="0" fill="none" stroke="none" class="" style=""/>

<g class="currentLayer" style=""><title>Layer 1</title><path fill-rule="evenodd" clip-rule="evenodd" d="M20.838918786408932,46.510168358535125 c-9.880927938222886,0 -17.891916825771332,-8.009870502948761 -17.891916825771332,-17.891916825771332 c0,-9.882046322822571 8.010988887548447,-17.891916825771332 17.891916825771332,-17.891916825771332 c6.714781136512756,0 12.558340669870375,3.7040897941589357 15.618240934610366,9.174108871221542 c0.7426073741912846,-0.12637745976448064 1.4963985943794258,-0.22926884293556268 2.273675891160965,-0.22926884293556268 c7.4115347421169275,0 13.419496811628342,6.0090804541111 13.419496811628342,13.420615196228027 c0,7.409297972917557 -6.0079620695114135,13.418378427028655 -13.419496811628342,13.418378427028655 C35.62731834805253,46.510168358535125 24.415512736203702,46.510168358535125 20.838918786408932,46.510168358535125 zM38.73083561218026,42.03662995979246 c4.941023161411286,0 8.947076797485352,-4.006053636074066 8.947076797485352,-8.94484002828598 c0,-4.941023161411286 -4.006053636074066,-8.947076797485352 -8.947076797485352,-8.947076797485352 c-1.7894153594970703,0 -3.4468613362312315,0.5379429924488086 -4.845960470438004,1.4438345181941985 c-1.3767314422130585,-5.945332531929016 -6.6812295985221875,-10.389792931079864 -13.04595635533333,-10.389792931079864 c-7.410416357517243,0 -13.418378427028655,6.0079620695114135 -13.418378427028655,13.419496811628342 c0,7.410416357517243 6.0079620695114135,13.418378427028655 13.418378427028655,13.418378427028655 C24.884115883471992,42.03662995979246 35.35443250572923,42.03662995979246 38.73083561218026,42.03662995979246 z" id="svg_1" class="selected" fill="#ffffff" fill-opacity="1"/></g></svg>