<svg xmlns="http://www.w3.org/2000/svg" xmlns:xlink="http://www.w3.org/1999/xlink" version="1.1" width="56" height="56" enable-background="new 0 0 100 100" xml:space="preserve"><rect id="backgroundrect" width="100%" height="100%" x="0" y="0" fill="none" stroke="none" class="" style=""/>

<g class="currentLayer" style=""><title>Layer 1</title><path fill-rule="evenodd" clip-rule="evenodd" d="M50.01691860209721,40.5463643416847 H6.234083043444329 c-1.2085573310852051,0 -2.189415454864502,-0.9808581237792972 -2.189415454864502,-2.189415454864502 c0,-1.2096520388126373 0.9808581237792972,-2.189415454864502 2.189415454864502,-2.189415454864502 h43.78283555865288 c1.2085573310852051,0 2.189415454864502,0.9797634160518649 2.189415454864502,2.189415454864502 C52.206334056961715,39.56441151017796 51.226570640909834,40.5463643416847 50.01691860209721,40.5463643416847 zM50.01691860209721,31.788702522226682 H6.234083043444329 c-1.2085573310852051,0 -2.189415454864502,-0.9797634160518649 -2.189415454864502,-2.189415454864502 c0,-1.2085573310852051 0.9808581237792972,-2.189415454864502 2.189415454864502,-2.189415454864502 h43.78283555865288 c1.2085573310852051,0 2.189415454864502,0.9808581237792972 2.189415454864502,2.189415454864502 C52.206334056961715,30.808939106174822 51.226570640909834,31.788702522226682 50.01691860209721,31.788702522226682 zM39.07093603550213,18.65439920849454 c-1.7526270716190337,0 -3.3749839236736303,0.5254597091674805 -4.743368582963944,1.413267676115036 c-1.3486799201965334,-5.820560986757279 -6.539783963680268,-10.170929495573045 -12.769765640497209,-10.170929495573045 c-7.253533401966095,0 -13.134303313732147,5.881864619493485 -13.134303313732147,13.136492729187012 h-4.378830909729004 c0,-9.671742771863938 7.8413914515972145,-17.514228931188583 17.51313422346115,-17.514228931188583 c6.572625195503234,0 12.292473071336746,3.6256719932556156 15.287593413591384,8.980982195854187 c0.7268859310150155,-0.1237019731998444 1.4636242315769197,-0.22441508412361177 2.225540809869766,-0.22441508412361177 c5.716563752651215,0 10.566118985176088,3.658513225078583 12.371292027711869,8.757661819458008 h-4.795914553880692 C45.13123801456707,20.41687864966046 42.310176200974155,18.65439920849454 39.07093603550213,18.65439920849454 zM6.234083043444329,44.923005835958826 h43.78283555865288 c1.2085573310852051,0 2.189415454864502,0.9808581237792972 2.189415454864502,2.189415454864502 c0,1.2096520388126373 -0.9808581237792972,2.189415454864502 -2.189415454864502,2.189415454864502 H6.234083043444329 c-1.2085573310852051,0 -2.189415454864502,-0.9797634160518649 -2.189415454864502,-2.189415454864502 C4.044667588579827,45.903863959738125 5.024431004631691,44.923005835958826 6.234083043444329,44.923005835958826 z" id="svg_1" class="selected" fill="#ffffff" fill-opacity="1"/></g></svg>