<svg xmlns="http://www.w3.org/2000/svg" xmlns:xlink="http://www.w3.org/1999/xlink" version="1.1" width="56" height="56" enable-background="new 0 0 100 100" xml:space="preserve"><rect id="backgroundrect" width="100%" height="100%" x="0" y="0" fill="none" stroke="none" class="" style=""/>

<g class="currentLayer" style=""><title>Layer 1</title><path fill-rule="evenodd" clip-rule="evenodd" d="M49.23087652730629,29.11559412459744 L49.23087652730629,29.11559412459744 c1.514168881416321,2.1572479165792466 2.411823094010353,4.779372244119644 2.411823094010353,7.618438896775245 c0,7.332871958613396 -5.944883817315102,13.27996947312355 -13.27996947312355,13.27996947312355 c-3.071504858136177,0 -14.16876889693737,0 -17.70736386322975,0 c-9.7801142077446,0 -17.70736386322975,-7.927249655485153 -17.70736386322975,-17.70736386322975 s7.927249655485153,-17.70736386322975 17.70736386322975,-17.70736386322975 c2.2159108922481536,0 4.332205410718918,0.4150682240724568 6.286900033950805,1.1588704816102982 l0,0 c1.8096974569559099,-5.182265133619309 6.727425775766373,-8.90681066429615 12.527312426805496,-8.90681066429615 c0.8356706911325462,0 1.6503112589120867,0.08633419060707101 2.4428148547410964,0.23465190267562872 c-0.14499716627597822,0.6364379435777665 -0.2291176596879962,1.2983334048986435 -0.2291176596879962,1.9790452923774726 c0,4.8900571038723 3.963624827742577,8.853681931614876 8.85257508301735,8.853681931614876 c0.6818187360763558,0 1.3426073487997057,-0.08412049341201797 1.9801521409749983,-0.23022450828552252 c0.14721086347103138,0.7936104444265367 0.2335450540781023,1.6082510122060785 0.2335450540781023,2.4439217033386234 C52.74844137024567,23.600167563122636 51.40804771864102,26.750258671683206 49.23087652730629,29.11559412459744 zM7.374289963242263,32.30663863126648 c0,7.335085655808449 5.944883817315102,13.27996947312355 13.27996947312355,13.27996947312355 c4.002364528656006,0 14.365787947297095,0 17.70736386322975,0 c4.8900571038723,0 8.853681931614876,-3.964731676340105 8.853681931614876,-8.85257508301735 c0,-4.8900571038723 -3.963624827742577,-8.854788780212402 -8.853681931614876,-8.854788780212402 c-1.7709577560424807,0 -3.412414226174355,0.5335010240077973 -4.797081821680068,1.4289415394067764 c-1.3625306235551835,-5.884007144451141 -6.611206673026085,-10.282623471021651 -12.910282041549682,-10.282623471021651 C13.319173780557364,19.025562309545407 7.374289963242263,24.971552975458035 7.374289963242263,32.30663863126648 zM29.0120731962888,16.70450080053223 c0.0011068485975265522,0 0.002213697195053104,0 0.002213697195053104,0 S29.013180044886322,16.70450080053223 29.0120731962888,16.70450080053223 zM37.489426604744644,11.507846635145077 c-3.2098609328269956,0.7349474687576295 -5.727941492199897,3.2209294188022617 -6.55807794034481,6.392050650715828 l0,0 c2.1229356100559236,1.5185962758064262 3.899427609086037,3.4887867794036866 5.180051436424255,5.7777496790885925 c0.7349474687576295,-0.12507389152050022 1.4798565748929984,-0.22690396249294312 2.2502231987714767,-0.22690396249294312 c2.89772962832451,0 5.5707689913511285,0.940821307897568 7.7534744256734855,2.5136531649827956 l0,0 c0.9496760966777811,-1.0836047769784927 1.6436701673269276,-2.399647759437561 1.976831595182419,-3.854046816587448 C42.72039307665512,21.109758218687897 38.49001773690864,16.882703424734004 37.489426604744644,11.507846635145077 z" id="svg_1" class="selected" fill="#ffffff" fill-opacity="1"/></g></svg>