<svg xmlns="http://www.w3.org/2000/svg" xmlns:xlink="http://www.w3.org/1999/xlink" version="1.1" width="56" height="56" enable-background="new 0 0 100 100" xml:space="preserve"><rect id="backgroundrect" width="100%" height="100%" x="0" y="0" fill="none" stroke="none" class="" style=""/>

<g class="currentLayer" style=""><title>Layer 1</title><path fill-rule="evenodd" clip-rule="evenodd" d="M44.2461393321789,38.43807402528551 v-4.899654943108559 c2.6695905841588976,-1.5489664679765702 4.471312591314316,-4.429932259678841 4.471312591314316,-7.739240403175354 c0,-4.941035274744034 -4.003826682567596,-8.947098731994629 -8.94486195731163,-8.947098731994629 c-1.7916565210819244,0 -3.4491065611839296,0.5379443112611775 -4.84709073805809,1.4438380578756331 c-1.3778532047271728,-5.945347107410431 -6.6801275907754905,-10.389818402528762 -13.044869951248169,-10.389818402528762 c-7.411552912116051,0 -13.418411323308945,6.0079767985343935 -13.418411323308945,13.419529710650444 c0,3.969156674981117 1.73238199198246,7.5256284209489825 4.471312591314316,9.982725410223008 v5.4957553961277 c-5.342536330342293,-3.095696161270142 -8.94486195731163,-8.85986451935768 -8.94486195731163,-15.478480806350708 c0,-9.882070549488068 8.009890139818191,-17.89196068930626 17.89196068930626,-17.89196068930626 c6.714797598361969,0 12.55837145769596,3.7040988750457773 15.618279224038124,9.174131362318992 c0.7426091947555546,-0.1263777695894242 1.494165488243103,-0.2292694050073626 2.273681465268135,-0.2292694050073626 c7.411552912116051,0 13.418411323308945,6.009095185875893 13.418411323308945,13.420648097991943 C53.191001289490536,31.638278988969585 49.45446918154127,36.59497168649461 44.2461393321789,38.43807402528551 zM19.64385459387667,25.80029706634309 c1.2346996250152589,0 2.2367746829986572,1.0009566706418993 2.2367746829986572,2.2367746829986572 v4.471312591314316 c0,1.2358180123567581 -1.0020750579833988,2.2367746829986572 -2.2367746829986572,2.2367746829986572 c-1.2358180123567581,0 -2.2367746829986572,-1.0009566706418993 -2.2367746829986572,-2.2367746829986572 v-4.471312591314316 C17.407079910878014,26.800135349643487 18.40803658151992,25.80029706634309 19.64385459387667,25.80029706634309 zM19.64385459387667,39.21870838965203 c1.2346996250152589,0 2.2367746829986572,1.0009566706418993 2.2367746829986572,2.2367746829986572 v4.471312591314316 c0,1.2358180123567581 -1.0020750579833988,2.2367746829986572 -2.2367746829986572,2.2367746829986572 c-1.2358180123567581,0 -2.2367746829986572,-1.0009566706418993 -2.2367746829986572,-2.2367746829986572 v-4.471312591314316 C17.407079910878014,40.218546672952435 18.40803658151992,39.21870838965203 19.64385459387667,39.21870838965203 zM28.5887165511883,30.27160965765741 c1.2358180123567581,0 2.2367746829986572,1.0020750579833988 2.2367746829986572,2.2367746829986572 v4.4735493659973145 c0,1.2346996250152589 -1.0009566706418993,2.2367746829986572 -2.2367746829986572,2.2367746829986572 c-1.2346996250152589,0 -2.2345379083156587,-1.0020750579833988 -2.2345379083156587,-2.2367746829986572 v-4.4735493659973145 C26.354178642872643,31.2736847156408 27.35513531351455,30.27160965765741 28.5887165511883,30.27160965765741 zM28.5887165511883,43.692257755649344 c1.2358180123567581,0 2.2367746829986572,1.0009566706418993 2.2367746829986572,2.2345379083156587 v4.4735493659973145 c0,1.2358180123567581 -1.0009566706418993,2.2367746829986572 -2.2367746829986572,2.2367746829986572 c-1.2346996250152589,0 -2.2345379083156587,-1.0009566706418993 -2.2345379083156587,-2.2367746829986572 v-4.4735493659973145 C26.354178642872643,44.69209603894975 27.35513531351455,43.692257755649344 28.5887165511883,43.692257755649344 zM37.53581528318293,25.80029706634309 c1.2346996250152589,0 2.2367746829986572,1.0009566706418993 2.2367746829986572,2.2367746829986572 v4.471312591314316 c0,1.2358180123567581 -1.0020750579833988,2.2367746829986572 -2.2367746829986572,2.2367746829986572 c-1.2358180123567581,0 -2.2367746829986572,-1.0009566706418993 -2.2367746829986572,-2.2367746829986572 v-4.471312591314316 C35.29904060018427,26.800135349643487 36.299997270826175,25.80029706634309 37.53581528318293,25.80029706634309 zM37.53581528318293,39.21870838965203 c1.2346996250152589,0 2.2367746829986572,1.0009566706418993 2.2367746829986572,2.2367746829986572 v4.471312591314316 c0,1.2358180123567581 -1.0020750579833988,2.2367746829986572 -2.2367746829986572,2.2367746829986572 c-1.2358180123567581,0 -2.2367746829986572,-1.0009566706418993 -2.2367746829986572,-2.2367746829986572 v-4.471312591314316 C35.29904060018427,40.218546672952435 36.299997270826175,39.21870838965203 37.53581528318293,39.21870838965203 z" id="svg_1" class="selected" fill="#ffffff" fill-opacity="1"/></g></svg>