<svg xmlns="http://www.w3.org/2000/svg" xmlns:xlink="http://www.w3.org/1999/xlink" version="1.1" width="56" height="56" enable-background="new 0 0 100 100" xml:space="preserve"><rect id="backgroundrect" width="100%" height="100%" x="0" y="0" fill="none" stroke="none" class="" style=""/>

<g class="currentLayer" style=""><title>Layer 1</title><path fill-rule="evenodd" clip-rule="evenodd" d="M50.92629602678259,11.227430044126733 H5.234482751564575 c-1.3276421070098878,0 -2.40514874458313,-1.0775066375732427 -2.40514874458313,-2.4039461702108382 c0,-1.3276421070098878 1.0775066375732427,-2.40514874458313 2.40514874458313,-2.40514874458313 h45.69181327521801 c1.3276421070098878,0 2.40514874458313,1.0775066375732427 2.40514874458313,2.40514874458313 C53.33144477136572,10.149923406553489 52.25514070816477,11.227430044126733 50.92629602678259,11.227430044126733 zM7.639631496147709,16.037727533292994 h36.07242087125778 c1.3276421070098878,0 2.40514874458313,1.0775066375732427 2.40514874458313,2.40514874458313 c0,1.3276421070098878 -1.0775066375732427,2.4039461702108382 -2.40514874458313,2.4039461702108382 H7.639631496147709 c-1.3276421070098878,0 -2.40514874458313,-1.0775066375732427 -2.40514874458313,-2.4039461702108382 C5.234482751564575,17.114031596493938 6.3119893891378185,16.037727533292994 7.639631496147709,16.037727533292994 zM22.0681188149019,25.657119937253213 h26.454231041669846 c1.3276421070098878,0 2.4039461702108382,1.0775066375732427 2.4039461702108382,2.4039461702108382 c0,1.3276421070098878 -1.076304063200951,2.40514874458313 -2.4039461702108382,2.40514874458313 H22.0681188149019 c-1.3276421070098878,0 -2.4039461702108382,-1.0775066375732427 -2.4039461702108382,-2.40514874458313 C19.66417264469106,26.734626574826457 20.740476707892014,25.657119937253213 22.0681188149019,25.657119937253213 zM24.47326755948503,44.895904745173674 h7.2142436593770976 c1.3276421070098878,0 2.40514874458313,1.0775066375732427 2.40514874458313,2.4039461702108382 c0,1.3276421070098878 -1.0775066375732427,2.40514874458313 -2.40514874458313,2.40514874458313 h-7.2142436593770976 c-1.3276421070098878,0 -2.40514874458313,-1.0775066375732427 -2.40514874458313,-2.40514874458313 C22.0681188149019,45.97341138274692 23.145625452475144,44.895904745173674 24.47326755948503,44.895904745173674 zM25.675841931776596,37.680458511424284 c0,-1.3276421070098878 1.0775066375732427,-2.4039461702108382 2.40514874458313,-2.4039461702108382 h16.833636063337327 c1.3276421070098878,0 2.40514874458313,1.0775066375732427 2.40514874458313,2.4039461702108382 c0,1.3276421070098878 -1.0775066375732427,2.40514874458313 -2.40514874458313,2.40514874458313 H28.080990676359725 C26.75334856934984,40.085607256007414 25.675841931776596,39.00930319280646 25.675841931776596,37.680458511424284 z" id="svg_1" class="selected" fill="#ffffff" fill-opacity="1"/></g></svg>