<svg xmlns="http://www.w3.org/2000/svg" xmlns:xlink="http://www.w3.org/1999/xlink" version="1.1" width="56" height="56" enable-background="new 0 0 100 100" xml:space="preserve"><rect id="backgroundrect" width="100%" height="100%" x="0" y="0" fill="none" stroke="none" class="" style=""/>

<g class="currentLayer" style=""><title>Layer 1</title><path fill-rule="evenodd" clip-rule="evenodd" d="M45.23992813758222,31.910619919982423 L45.23992813758222,31.910619919982423 h-3.334845185279846 c-1.2283346432447433,0 -2.2232301235198975,-0.9948954802751546 -2.2232301235198975,-2.222118508458138 s0.9948954802751546,-2.2232301235198975 2.2232301235198975,-2.2232301235198975 h3.334845185279846 c1.2272230281829835,0 2.2232301235198975,-0.9960070953369135 2.2232301235198975,-2.222118508458138 c0,-1.2283346432447433 -0.9960070953369135,-2.2232301235198975 -2.2232301235198975,-2.2232301235198975 c-1.2283346432447433,0 -2.2232301235198975,-0.9960070953369135 -2.2232301235198975,-2.2232301235198975 s0.9948954802751546,-2.2232301235198975 2.2232301235198975,-2.2232301235198975 c0.15229126346111355,0 0.3012476817369463,0.015562610864639307 0.4468692548275001,0.04557621753215819 c3.4693506077528,0.23455077803134922 6.220597885608673,3.093624716877937 6.220597885608673,6.624114153027534 C51.9073952780184,28.9248218640952 48.922708837192936,31.910619919982423 45.23992813758222,31.910619919982423 zM34.12377751998274,27.465271288004384 h-2.2232301235198975 h-7.779082202196122 H9.671581006449149 c-1.2272230281829835,0 -2.222118508458138,0.9960070953369135 -2.222118508458138,2.2232301235198975 S8.444357978266165,31.910619919982423 9.671581006449149,31.910619919982423 h2.2232301235198975 h4.445348631978035 h3.334845185279846 h4.446460247039795 h3.334845185279846 h4.444237016916276 h2.2232301235198975 c3.6838923146724722,0 6.669690370559692,2.9869096709489824 6.669690370559692,6.669690370559692 c0,3.5304894361495975 -2.751247277855873,6.389563374996186 -6.220597885608673,6.624114153027534 C34.4272484318432,45.234438050237166 34.278292013567366,45.25000066110181 34.12377751998274,45.25000066110181 c-1.2272230281829835,0 -2.2232301235198975,-0.9960070953369135 -2.2232301235198975,-2.2232301235198975 c0,-1.2283346432447433 0.9960070953369135,-2.2232301235198975 2.2232301235198975,-2.2232301235198975 c1.2283346432447433,0 2.2232301235198975,-0.9960070953369135 2.2232301235198975,-2.2232301235198975 s-0.9948954802751546,-2.2232301235198975 -2.2232301235198975,-2.2232301235198975 h-2.2232301235198975 h-4.444237016916276 h-3.334845185279846 h-4.446460247039795 h-3.334845185279846 h-4.445348631978035 h-2.2232301235198975 c-3.6827806996107117,0 -6.668578755497932,-2.9857980558872224 -6.668578755497932,-6.668578755497932 c0,-3.529377821087837 2.751247277855873,-6.3884517599344255 6.220597885608673,-6.624114153027534 c0.14562157309055282,-0.028901991605758834 0.2956896064281464,-0.04446460247039801 0.44798086988926206,-0.04446460247039801 l0,0 h14.449884187817574 h7.779082202196122 h2.2232301235198975 c1.2283346432447433,0 2.2232301235198975,-0.9960070953369135 2.2232301235198975,-2.2232301235198975 s-0.9948954802751546,-2.2232301235198975 -2.2232301235198975,-2.2232301235198975 c-1.2272230281829835,0 -2.2232301235198975,-0.9948954802751546 -2.2232301235198975,-2.2232301235198975 c0,-1.2272230281829835 0.9960070953369135,-2.2232301235198975 2.2232301235198975,-2.2232301235198975 c0.15451449358463373,0 0.30347091186046804,0.016674225926399323 0.44909248495102,0.04557621753215819 c3.4693506077528,0.23455077803134922 6.220597885608673,3.093624716877937 6.220597885608673,6.624114153027534 C40.79346789054243,24.478361617055405 37.80766983465521,27.465271288004384 34.12377751998274,27.465271288004384 z" id="svg_1" class="selected" fill="#ffffff" fill-opacity="1"/></g></svg>