<svg xmlns="http://www.w3.org/2000/svg" xmlns:xlink="http://www.w3.org/1999/xlink" version="1.1" width="60" height="60" enable-background="new 0 0 100 100" xml:space="preserve"><rect id="backgroundrect" width="100%" height="100%" x="0" y="0" fill="none" stroke="none" class="" style=""/>

<g class="currentLayer" style=""><title>Layer 1</title><path fill-rule="evenodd" clip-rule="evenodd" d="M29.68749902327886,55.74682579547873 c-14.391489872455598,0 -26.061498185873035,-11.665664368391038 -26.061498185873035,-26.05932621335983 S15.29600915082327,3.6260013962458677 29.68749902327886,3.6260013962458677 c14.393661844968795,0 26.061498185873035,11.667836340904236 26.061498185873035,26.061498185873035 S44.081160868247665,55.74682579547873 29.68749902327886,55.74682579547873 zM34.031444049676566,12.885120220012585 c-1.3922343809604651,-0.3605474371910098 -2.840940047264099,-0.5690567984580996 -4.343945026397705,-0.5690567984580996 c-9.593602590799332,0 -17.37360813307762,7.775661597251892 -17.37360813307762,17.37143616056442 s7.78000554227829,17.37143616056442 17.37360813307762,17.37143616056442 c1.5030049791336069,0 2.9517106454372404,-0.20850936126709005 4.343945026397705,-0.5690567984580996 c-7.4889612255096445,-1.9308835642337807 -13.029663106679916,-8.709609777927398 -13.029663106679916,-16.802379362106322 S26.542482824166925,14.813831811733163 34.031444049676566,12.885120220012585 z" id="svg_1" class="selected" fill="#ffffff" fill-opacity="1"/></g></svg>