<svg xmlns="http://www.w3.org/2000/svg" xmlns:xlink="http://www.w3.org/1999/xlink" version="1.1" width="60" height="60" enable-background="new 0 0 100 100" xml:space="preserve"><rect id="backgroundrect" width="100%" height="100%" x="0" y="0" fill="none" stroke="none" class="" style=""/>

<g class="currentLayer" style=""><title>Layer 1</title><path fill-rule="evenodd" clip-rule="evenodd" d="M53.116778837135776,31.81666133797045 h-4.258319184780121 c-1.1769491493701936,0 -2.1302247047424316,-0.9532755553722385 -2.1302247047424316,-2.1291595923900606 s0.9532755553722385,-2.1302247047424316 2.1302247047424316,-2.1302247047424316 h4.258319184780121 c1.1769491493701936,0 2.1302247047424316,0.9543406677246101 2.1302247047424316,2.1302247047424316 S54.294793098858335,31.81666133797045 53.116778837135776,31.81666133797045 zM44.750321309259874,17.6389508155572 c-0.8318527472019195,0.8318527472019195 -2.182415210008621,0.8318527472019195 -3.0121377325057987,0 c-0.8318527472019195,-0.8318527472019195 -0.8318527472019195,-2.180284985303879 0,-3.0121377325057987 l3.0121377325057987,-3.0121377325057987 c0.8297225224971781,-0.8318527472019195 2.180284985303879,-0.8318527472019195 3.0121377325057987,0 c0.8297225224971781,0.8318527472019195 0.8297225224971781,2.180284985303879 0,3.0121377325057987 L44.750321309259874,17.6389508155572 zM29.688567534378514,42.46671974933024 c-7.058499559164047,0 -12.78134822845459,-5.721783556938171 -12.78134822845459,-12.779218003749847 c0,-7.058499559164047 5.721783556938171,-12.780283116102218 12.78134822845459,-12.780283116102218 c7.058499559164047,0 12.779218003749847,5.721783556938171 12.779218003749847,12.780283116102218 C42.46778553812836,36.74493619239207 36.74706709354256,42.46671974933024 29.688567534378514,42.46671974933024 zM29.688567534378514,21.167668038963033 c-4.705666372776031,0 -8.520898818969727,3.814167333841324 -8.520898818969727,8.519833706617355 c0,4.70460126042366 3.8162975585460663,8.519833706617355 8.520898818969727,8.519833706617355 s8.518768594264984,-3.8152324461936953 8.518768594264984,-8.519833706617355 C38.2073361286435,24.981835372804362 34.39423390715454,21.167668038963033 29.688567534378514,21.167668038963033 zM29.688567534378514,12.647834332345683 c-1.1769491493701936,0 -2.1302247047424316,-0.9543406677246101 -2.1302247047424316,-2.1302247047424316 v-4.259384297132492 c0,-1.1758840370178223 0.9532755553722385,-2.1302247047424316 2.1302247047424316,-2.1302247047424316 c1.1758840370178223,0 2.1302247047424316,0.9543406677246101 2.1302247047424316,2.1302247047424316 v4.259384297132492 C31.818792239120945,11.693493664621073 30.863386459043966,12.647834332345683 29.688567534378514,12.647834332345683 zM14.62681375949715,17.6389508155572 l-3.0121377325057987,-3.0121377325057987 c-0.8318527472019195,-0.8318527472019195 -0.8318527472019195,-2.180284985303879 0,-3.0121377325057987 s2.180284985303879,-0.8318527472019195 3.0121377325057987,0 l3.0121377325057987,3.0121377325057987 c0.8318527472019195,0.8318527472019195 0.8318527472019195,2.180284985303879 0,3.0121377325057987 S15.458666506699068,18.47080356275912 14.62681375949715,17.6389508155572 zM12.647835008791434,29.68750174558039 c0,1.1758840370178223 -0.9543406677246101,2.1291595923900606 -2.1302247047424316,2.1291595923900606 h-4.260449409484863 c-1.1758840370178223,0 -2.1291595923900606,-0.9532755553722385 -2.1291595923900606,-2.1291595923900606 s0.9543406677246101,-2.1302247047424316 2.1291595923900606,-2.1302247047424316 h4.260449409484863 C11.694559453419192,27.55727704083796 12.647835008791434,28.511617708562564 12.647835008791434,29.68750174558039 zM14.62681375949715,41.73605267560358 c0.8318527472019195,-0.8307876348495491 2.180284985303879,-0.8307876348495491 3.0121377325057987,0 c0.8318527472019195,0.8318527472019195 0.8318527472019195,2.18135009765625 0,3.0121377325057987 l-3.0121377325057987,3.0121377325057987 c-0.8318527472019195,0.8318527472019195 -2.180284985303879,0.8318527472019195 -3.0121377325057987,0 c-0.8318527472019195,-0.8307876348495491 -0.8318527472019195,-2.180284985303879 0,-3.0121377325057987 L14.62681375949715,41.73605267560358 zM29.688567534378514,46.72716915881511 c1.1758840370178223,0 2.1302247047424316,0.9532755553722385 2.1302247047424316,2.1291595923900606 v4.260449409484863 c0,1.1758840370178223 -0.9543406677246101,2.1302247047424316 -2.1302247047424316,2.1302247047424316 c-1.1769491493701936,0 -2.1302247047424316,-0.9543406677246101 -2.1302247047424316,-2.1302247047424316 v-4.260449409484863 C27.55834282963608,47.68044471418734 28.511618385008322,46.72716915881511 29.688567534378514,46.72716915881511 zM44.750321309259874,41.73605267560358 l3.0121377325057987,3.0121377325057987 c0.8297225224971781,0.8318527472019195 0.8297225224971781,2.18135009765625 0,3.0121377325057987 c-0.8318527472019195,0.8318527472019195 -2.182415210008621,0.8318527472019195 -3.0121377325057987,0 l-3.0121377325057987,-3.0121377325057987 c-0.8318527472019195,-0.8307876348495491 -0.8318527472019195,-2.180284985303879 0,-3.0121377325057987 C42.56790609925126,40.904199928401674 43.91740344970559,40.904199928401674 44.750321309259874,41.73605267560358 z" id="svg_1" class="selected" fill="#ffffff" fill-opacity="1"/></g></svg>