<svg xmlns="http://www.w3.org/2000/svg" xmlns:xlink="http://www.w3.org/1999/xlink" version="1.1" width="56" height="56" enable-background="new 0 0 100 100" xml:space="preserve"><rect id="backgroundrect" width="100%" height="100%" x="0" y="0" fill="none" stroke="none" class="" style=""/>

<g class="currentLayer" style=""><title>Layer 1</title><path fill-rule="evenodd" clip-rule="evenodd" d="M43.26035463764837,38.437954994026704 v-4.899654943108559 c2.671827358841896,-1.5467296932935715 4.472430978655815,-4.429932259678841 4.472430978655815,-7.739240403175354 c0,-4.939916887402534 -4.004945069909096,-8.94598034465313 -8.94486195731163,-8.94598034465313 c-1.7905381337404251,0 -3.4491065611839296,0.5368259239196779 -4.84709073805809,1.4438380578756331 c-1.3767348173856737,-5.946465494751931 -6.68124597811699,-10.389818402528762 -13.04598833858967,-10.389818402528762 c-7.410434524774551,0 -13.418411323308945,6.0079767985343935 -13.418411323308945,13.418411323308945 c0,3.9702750623226164 1.7335003793239594,7.524510033607482 4.472430978655815,9.981607022881509 v5.4979921708107 c-5.341417943000793,-3.095696161270142 -8.94486195731163,-8.85986451935768 -8.94486195731163,-15.479599193692206 c0,-9.880952162146569 8.009890139818191,-17.89084230196476 17.89084230196476,-17.89084230196476 c6.714797598361969,0 12.55837145769596,3.702980487704277 15.619397611379622,9.174131362318992 c0.7414908074140552,-0.12637776958942418 1.494165488243103,-0.22926940500736243 2.273681465268135,-0.22926940500736243 c7.410434524774551,0 13.418411323308945,6.0079767985343935 13.418411323308945,13.419529710650444 C52.206334982301506,31.640396732393782 48.46868448701075,36.594852655235805 43.26035463764837,38.437954994026704 zM18.65918828668764,39.218589358393224 c-1.2346996250152589,0 -1.1183873414993286,-1.0009566706418993 -1.1183873414993286,-2.2345379083156587 v-8.947098731994629 c0,-1.2346996250152589 -0.1163122835159302,-2.2367746829986572 1.1183873414993286,-2.2367746829986572 s1.1183873414993286,1.0020750579833988 1.1183873414993286,2.2367746829986572 v8.947098731994629 C19.77757562818697,38.21763268775133 19.893887911702897,39.218589358393224 18.65918828668764,39.218589358393224 zM18.65918828668764,43.69213872439054 c1.2346996250152589,0 2.235656295657158,1.0020750579833988 2.235656295657158,2.2367746829986572 c0,1.2358180123567581 -1.0009566706418993,2.2367746829986572 -2.235656295657158,2.2367746829986572 s-2.2367746829986572,-1.0009566706418993 -2.2367746829986572,-2.2367746829986572 C16.422413603688984,44.69421378237394 17.42337027433088,43.69213872439054 18.65918828668764,43.69213872439054 zM27.605168631340764,43.69213872439054 c-1.2346996250152589,0 -1.1183873414993286,-1.0009566706418993 -1.1183873414993286,-2.2367746829986572 v-8.94486195731163 c0,-1.2358180123567581 -0.1163122835159302,-2.2367746829986572 1.1183873414993286,-2.2367746829986572 s1.1183873414993286,1.0009566706418993 1.1183873414993286,2.2367746829986572 v8.94486195731163 C28.723555972840092,42.69118205374865 28.839868256356024,43.69213872439054 27.605168631340764,43.69213872439054 zM27.605168631340764,48.16568809038785 c1.2346996250152589,0 2.235656295657158,1.0009566706418993 2.235656295657158,2.2367746829986572 c0,1.2346996250152589 -1.0009566706418993,2.2367746829986572 -2.235656295657158,2.2367746829986572 s-2.2367746829986572,-1.0020750579833988 -2.2367746829986572,-2.2367746829986572 C25.368393948342106,49.16552637368826 26.36935061898401,48.16568809038785 27.605168631340764,48.16568809038785 zM36.5511489759939,39.218589358393224 c-1.2346996250152589,0 -1.1183873414993286,-1.0009566706418993 -1.1183873414993286,-2.2345379083156587 v-8.947098731994629 c0,-1.2346996250152589 -0.1163122835159302,-2.2367746829986572 1.1183873414993286,-2.2367746829986572 s1.1183873414993286,1.0020750579833988 1.1183873414993286,2.2367746829986572 v8.947098731994629 C37.669536317493225,38.21763268775133 37.78584860100916,39.218589358393224 36.5511489759939,39.218589358393224 zM36.5511489759939,43.69213872439054 c1.2346996250152589,0 2.2367746829986572,1.0020750579833988 2.2367746829986572,2.2367746829986572 c0,1.2358180123567581 -1.0020750579833988,2.2367746829986572 -2.2367746829986572,2.2367746829986572 s-2.2367746829986572,-1.0009566706418993 -2.2367746829986572,-2.2367746829986572 C34.31437429299524,44.69421378237394 35.31644935097864,43.69213872439054 36.5511489759939,43.69213872439054 z" id="svg_1" class="selected" fill="#ffffff" fill-opacity="1"/></g></svg>