<svg xmlns="http://www.w3.org/2000/svg" xmlns:xlink="http://www.w3.org/1999/xlink" version="1.1" width="56" height="56" enable-background="new 0 0 100 100" xml:space="preserve"><rect id="backgroundrect" width="100%" height="100%" x="0" y="0" fill="none" stroke="none" class="" style=""/>

<g class="currentLayer" style=""><title>Layer 1</title><path fill-rule="evenodd" clip-rule="evenodd" d="M51.893172589889474,30.13793819282369 h-3.845659017562866 c-1.061401888847351,0 -1.922829508781433,-0.8604662051796915 -1.922829508781433,-1.922829508781433 c0,-1.061401888847351 0.8614276199340827,-1.9209066792726515 1.922829508781433,-1.9209066792726515 h3.845659017562866 c1.061401888847351,0 1.922829508781433,0.8604662051796915 1.922829508781433,1.9209066792726515 C53.81600209867091,29.277471987644002 52.954574478736816,30.13793819282369 51.893172589889474,30.13793819282369 zM44.339336864641616,17.339584982374475 c-0.7508649231791499,0.7508649231791499 -1.9680160022377968,0.7508649231791499 -2.7188809254169466,0 c-0.7508649231791499,-0.7499035084247592 -0.7508649231791499,-1.9680160022377968 0,-2.7179195106625555 l2.7188809254169466,-2.7188809254169466 c0.7508649231791499,-0.7508649231791499 1.9680160022377968,-0.7508649231791499 2.7188809254169466,0 c0.7508649231791499,0.7499035084247592 0.7508649231791499,1.9680160022377968 0,2.7188809254169466 L44.339336864641616,17.339584982374475 zM41.50604758345217,32.344385054150386 L41.50604758345217,32.344385054150386 c1.6815144054293634,2.0055111776590344 2.6977298008203507,4.585948378443717 2.6977298008203507,7.407700682580471 c0,6.369372747838497 -5.164720060586929,11.535054223179817 -11.536015637934208,11.535054223179817 c-2.667925943434238,0 -12.307070270955563,0 -15.380713240742683,0 c-8.494099355041982,0 -15.380713240742683,-6.885652470946312 -15.380713240742683,-15.380713240742683 s6.886613885700703,-15.380713240742683 15.380713240742683,-15.380713240742683 c1.5113439939022064,0 2.970771591067314,0.22304822301864624 4.3484789341092105,0.6287652493715292 c2.1103053858876226,-2.7179195106625555 5.401228090167046,-4.4744242669343945 9.109404797852038,-4.4744242669343945 c6.371295577347278,0 11.536015637934208,5.16568147534132 11.536015637934208,11.535054223179817 C42.27998646073669,29.67165203694419 41.998291937700216,31.061857771793168 41.50604758345217,32.344385054150386 zM5.7510328676614195,35.90642671916799 c0,6.371295577347278 5.163758645832539,11.535054223179817 11.535054223179817,11.535054223179817 c3.476475751876831,0 12.478202097237109,0 15.380713240742683,0 c4.2475303848981865,0 7.690356620371341,-3.4437876502275464 7.690356620371341,-7.689395205616951 c0,-4.2475303848981865 -3.4428262354731562,-7.691318035125732 -7.690356620371341,-7.691318035125732 c-1.5382636070251465,0 -2.964041687786579,0.46340191161632555 -4.165810130774975,1.241186447918415 c-1.183501562654972,-5.1108808343410495 -5.743491742730141,-8.930581653535366 -11.21490310996771,-8.930581653535366 C10.914791513493956,24.371372495988176 5.7510328676614195,29.535131141820713 5.7510328676614195,35.90642671916799 zM30.743970822802485,20.52571347842531 c-2.126649436712265,0 -4.05236318975687,0.8633504494428638 -5.443530339360237,2.2583632580637936 c2.2497105252742764,1.3805915873050691 4.11966222256422,3.319765146911144 5.411803652465344,5.628121972203255 c0.6383793969154364,-0.10863986724615105 1.2854115266203883,-0.19709002465009698 1.9545561956763264,-0.19709002465009698 c2.0430063530802727,0 3.9600673733353613,0.5374308477044105 5.6242763131856925,1.4680803299546243 l0,0 c0.09229581642150896,-0.4749388886690143 0.1442122131586076,-0.9652604134082797 0.1442122131586076,-1.4680803299546243 C38.43528885792822,23.969501128652855 34.99150120770067,20.52571347842531 30.743970822802485,20.52571347842531 zM30.743970822802485,12.834395443299575 c-1.061401888847351,0 -1.9218680940270425,-0.8604662051796915 -1.9218680940270425,-1.9218680940270425 v-3.844697602808476 c0,-1.0623633036017417 0.8614276199340827,-1.922829508781433 1.9218680940270425,-1.922829508781433 c1.0623633036017417,0 1.922829508781433,0.8604662051796915 1.922829508781433,1.922829508781433 v3.844697602808476 C32.66680033158392,11.974890652874274 31.80729554115862,12.834395443299575 30.743970822802485,12.834395443299575 zM17.149566195717753,17.339584982374475 l-2.7179195106625555,-2.7179195106625555 c-0.7508649231791499,-0.7508649231791499 -0.7508649231791499,-1.9689774169921876 0,-2.7188809254169466 c0.7499035084247592,-0.7508649231791499 1.9680160022377968,-0.7508649231791499 2.7179195106625555,0 l2.7188809254169466,2.7188809254169466 c0.7508649231791499,0.7499035084247592 0.7508649231791499,1.9680160022377968 0,2.7179195106625555 C19.118543612709942,18.09044990555362 17.900431118896908,18.09044990555362 17.149566195717753,17.339584982374475 z" id="svg_1" class="selected" fill="#ffffff" fill-opacity="1"/></g></svg>