<svg xmlns="http://www.w3.org/2000/svg" xmlns:xlink="http://www.w3.org/1999/xlink" version="1.1" width="56" height="56" enable-background="new 0 0 100 100" xml:space="preserve"><rect id="backgroundrect" width="100%" height="100%" x="0" y="0" fill="none" stroke="none" class="" style=""/>

<g class="currentLayer" style=""><title>Layer 1</title><path fill-rule="evenodd" clip-rule="evenodd" d="M43.20447270524866,38.438073655044995 v-4.899654943108559 c2.6695905841588976,-1.5489664679765702 4.471312591314316,-4.429932259678841 4.471312591314316,-7.739240403175354 c0,-4.941035274744034 -4.003826682567596,-8.947098731994629 -8.94486195731163,-8.947098731994629 c-1.7916565210819246,0 -3.4491065611839296,0.5379443112611771 -4.84709073805809,1.4438380578756331 c-1.3778532047271728,-5.945347107410431 -6.68012759077549,-10.389818402528762 -13.044869951248169,-10.389818402528762 c-7.411552912116051,0 -13.418411323308945,6.0079767985343935 -13.418411323308945,13.419529710650444 c0,3.969156674981117 1.73238199198246,7.5256284209489825 4.471312591314316,9.982725410223008 v5.4957553961277 c-5.342536330342293,-3.095696161270142 -8.94486195731163,-8.85986451935768 -8.94486195731163,-15.478480806350708 c0,-9.882070549488068 8.009890139818191,-17.89196068930626 17.89196068930626,-17.89196068930626 c6.714797598361969,0 12.55837145769596,3.704098875045777 15.618279224038124,9.174131362318992 c0.7426091947555545,-0.12637776958942418 1.494165488243103,-0.22926940500736243 2.273681465268135,-0.22926940500736243 c7.411552912116051,0 13.418411323308945,6.009095185875893 13.418411323308945,13.420648097991943 C52.1493346625603,31.638278618729068 48.412802554611034,36.594971316254096 43.20447270524866,38.438073655044995 zM18.602187966946435,25.800296696102578 c1.2346996250152589,0 2.2367746829986572,1.0009566706418993 2.2367746829986572,2.2367746829986572 v4.471312591314316 c0,1.2358180123567581 -1.0020750579833988,2.2367746829986572 -2.2367746829986572,2.2367746829986572 c-1.2358180123567581,0 -2.2367746829986572,-1.0009566706418993 -2.2367746829986572,-2.2367746829986572 v-4.471312591314316 C16.365413283947778,26.800134979402973 17.366369954589683,25.800296696102578 18.602187966946435,25.800296696102578 zM18.602187966946435,39.218708019411515 c1.2346996250152589,0 2.2367746829986572,1.0009566706418993 2.2367746829986572,2.2367746829986572 v4.471312591314316 c0,1.2358180123567581 -1.0020750579833988,2.2367746829986572 -2.2367746829986572,2.2367746829986572 c-1.2358180123567581,0 -2.2367746829986572,-1.0009566706418993 -2.2367746829986572,-2.2367746829986572 v-4.471312591314316 C16.365413283947778,40.21854630271192 17.366369954589683,39.218708019411515 18.602187966946435,39.218708019411515 zM27.54704992425806,30.271609287416897 c1.2358180123567581,0 2.2367746829986572,1.0020750579833988 2.2367746829986572,2.2367746829986572 v4.4735493659973145 c0,1.2346996250152589 -1.0009566706418993,2.2367746829986572 -2.2367746829986572,2.2367746829986572 c-1.2346996250152589,0 -2.2345379083156587,-1.0020750579833988 -2.2345379083156587,-2.2367746829986572 v-4.4735493659973145 C25.312512015942406,31.273684345400287 26.31346868658431,30.271609287416897 27.54704992425806,30.271609287416897 zM27.54704992425806,43.69225738540883 c1.2358180123567581,0 2.2367746829986572,1.0009566706418993 2.2367746829986572,2.2345379083156587 v4.4735493659973145 c0,1.2358180123567581 -1.0009566706418993,2.2367746829986572 -2.2367746829986572,2.2367746829986572 c-1.2346996250152589,0 -2.2345379083156587,-1.0009566706418993 -2.2345379083156587,-2.2367746829986572 v-4.4735493659973145 C25.312512015942406,44.692095668709236 26.31346868658431,43.69225738540883 27.54704992425806,43.69225738540883 zM36.49414865625269,25.800296696102578 c1.2346996250152589,0 2.2367746829986572,1.0009566706418993 2.2367746829986572,2.2367746829986572 v4.471312591314316 c0,1.2358180123567581 -1.0020750579833988,2.2367746829986572 -2.2367746829986572,2.2367746829986572 c-1.2358180123567581,0 -2.2367746829986572,-1.0009566706418993 -2.2367746829986572,-2.2367746829986572 v-4.471312591314316 C34.25737397325403,26.800134979402973 35.25833064389594,25.800296696102578 36.49414865625269,25.800296696102578 zM36.49414865625269,39.218708019411515 c1.2346996250152589,0 2.2367746829986572,1.0009566706418993 2.2367746829986572,2.2367746829986572 v4.471312591314316 c0,1.2358180123567581 -1.0020750579833988,2.2367746829986572 -2.2367746829986572,2.2367746829986572 c-1.2358180123567581,0 -2.2367746829986572,-1.0009566706418993 -2.2367746829986572,-2.2367746829986572 v-4.471312591314316 C34.25737397325403,40.21854630271192 35.25833064389594,39.218708019411515 36.49414865625269,39.218708019411515 z" id="svg_1" class="selected" fill="#ffffff" fill-opacity="1"/></g></svg>