<svg xmlns="http://www.w3.org/2000/svg" xmlns:xlink="http://www.w3.org/1999/xlink" version="1.1" width="56" height="56" enable-background="new 0 0 100 100" xml:space="preserve"><rect id="backgroundrect" width="100%" height="100%" x="0" y="0" fill="none" stroke="none" class="" style=""/>

<g class="currentLayer" style=""><title>Layer 1</title><path fill-rule="evenodd" clip-rule="evenodd" d="M44.52790606564762,39.62578260888769 v-5.065599643681061 c2.7559450874777394,-1.6014278718325201 4.613237507251351,-4.582280618102726 4.613237507251351,-8.003670562328304 c0,-5.106068940081161 -4.1310336367759675,-9.247812360228517 -9.227628612278957,-9.247812360228517 c-1.845756442011043,0 -3.5565419442000286,0.5550074934870831 -4.998539164521156,1.492738904357966 c-1.4200788625722462,-6.147864255980873 -6.891593115358732,-10.742863795809344 -13.456718060036762,-10.742863795809344 c-7.6448924632544895,0 -13.84086611953031,6.212615130221032 -13.84086611953031,13.875187337177067 c0,4.103586654970117 1.7880765531981986,7.780511299322041 4.614391105027607,10.318514316414012 v5.684201745796872 c-5.510736577179221,-3.2005432124421773 -9.228782210055215,-9.159936173759727 -9.228782210055215,-16.002716062210883 c0,-10.216762942608046 8.263220871328189,-18.499093517291325 18.455257224557915,-18.499093517291325 c6.926201048646439,0 12.953749429588749,3.829551705060871 16.109992945427635,9.48600307618339 c0.765988923434584,-0.13065801409175068 1.542360226855478,-0.23703445034344175 2.3452642791302822,-0.23703445034344175 c7.6448924632544895,0 13.842019717306567,6.212615130221032 13.842019717306567,13.872874805954202 C53.75553467792658,32.59568769138465 49.89905731189976,37.717944350025846 44.52790606564762,39.62578260888769 zM19.151062183548287,31.182731114215446 c1.2747255427638764,0 2.3071955525138037,1.0360139878425547 2.3071955525138037,2.3125312228628445 c0,1.2776735006317215 -1.0324700097499278,2.3125312228628445 -2.3071955525138037,2.3125312228628445 c-1.2735719449876197,0 -2.3060419547375473,-1.0348577222311235 -2.3060419547375473,-2.3125312228628445 C16.845020228810746,32.218745102057994 17.87749023856067,31.182731114215446 19.151062183548287,31.182731114215446 zM19.151062183548287,40.432856005666835 c1.2747255427638764,0 2.3071955525138037,1.0348577222311235 2.3071955525138037,2.3125312228628445 c0,1.2765172350202902 -1.0324700097499278,2.3102186916399816 -2.3071955525138037,2.3102186916399816 c-1.2735719449876197,0 -2.3060419547375473,-1.0348577222311235 -2.3060419547375473,-2.3102186916399816 C16.845020228810746,41.46655746228652 17.87749023856067,40.432856005666835 19.151062183548287,40.432856005666835 zM28.379844393603502,35.80779355994113 c1.2735719449876197,0 2.3071955525138037,1.0348577222311235 2.3071955525138037,2.3125312228628445 c0,1.2765172350202902 -1.0336236075261842,2.3125312228628445 -2.3071955525138037,2.3125312228628445 c-1.2747255427638764,0 -2.3071955525138037,-1.0360139878425547 -2.3071955525138037,-2.3125312228628445 C26.0726488410897,36.84149501656083 27.105118850839627,35.80779355994113 28.379844393603502,35.80779355994113 zM28.379844393603502,45.05560592016965 c1.2735719449876197,0 2.3071955525138037,1.0360139878425547 2.3071955525138037,2.3125312228628445 c0,1.2776735006317215 -1.0336236075261842,2.3125312228628445 -2.3071955525138037,2.3125312228628445 c-1.2747255427638764,0 -2.3071955525138037,-1.0348577222311235 -2.3071955525138037,-2.3125312228628445 C26.0726488410897,46.091619908012206 27.105118850839627,45.05560592016965 28.379844393603502,45.05560592016965 zM37.60631940810621,31.182731114215446 c1.2747255427638764,0 2.3071955525138037,1.0360139878425547 2.3071955525138037,2.3125312228628445 c0,1.2776735006317215 -1.0324700097499278,2.3125312228628445 -2.3071955525138037,2.3125312228628445 c-1.2735719449876197,0 -2.3060419547375473,-1.0348577222311235 -2.3060419547375473,-2.3125312228628445 C35.30027745336866,32.218745102057994 36.33390106089484,31.182731114215446 37.60631940810621,31.182731114215446 zM37.60631940810621,40.432856005666835 c1.2747255427638764,0 2.3071955525138037,1.0348577222311235 2.3071955525138037,2.3125312228628445 c0,1.2765172350202902 -1.0324700097499278,2.3102186916399816 -2.3071955525138037,2.3102186916399816 c-1.2735719449876197,0 -2.3060419547375473,-1.0348577222311235 -2.3060419547375473,-2.3102186916399816 C35.30027745336866,41.46655746228652 36.33390106089484,40.432856005666835 37.60631940810621,40.432856005666835 z" id="svg_1" class="selected" fill="#ffffff" fill-opacity="1"/></g></svg>