<svg xmlns="http://www.w3.org/2000/svg" xmlns:xlink="http://www.w3.org/1999/xlink" version="1.1" width="56" height="56" enable-background="new 0 0 100 100" xml:space="preserve"><rect id="backgroundrect" width="100%" height="100%" x="0" y="0" fill="none" stroke="none" class="" style=""/>

<g class="currentLayer" style=""><title>Layer 1</title><path fill-rule="evenodd" clip-rule="evenodd" d="M38.786717547314375,39.220738739222845 c-0.3131476879119873,0 -0.7258316051959997,0 -1.1877244448661806,0 l4.009408789873123,-4.9343128538131715 c3.557581411600113,-1.182132521867752 6.125392452478409,-4.532812782526016 6.125392452478409,-8.486302342414856 c0,-4.941023161411286 -4.004935251474381,-8.94484002828598 -8.945958412885666,-8.94484002828598 c-1.7905337440967555,0 -3.4479797208309177,0.5368246078491214 -4.845960470438004,1.4427161335945131 c-1.3778498268127441,-5.945332531929016 -6.6812295985221875,-10.389792931079864 -13.04595635533333,-10.389792931079864 c-7.410416357517243,0 -13.418378427028655,6.0079620695114135 -13.418378427028655,13.420615196228027 c0,6.090722529888152 4.061972866058349,11.226344611644745 9.622581095695494,12.865896434783934 l-1.5087008249759677,4.224138633012772 c-7.291867589950561,-2.2602552759647367 -12.587418669462204,-9.056678488254548 -12.587418669462204,-17.091153452396394 c0,-9.880927938222886 8.010988887548447,-17.893035210371018 17.891916825771332,-17.893035210371018 c6.714781136512756,0 12.558340669870375,3.7040897941589357 15.618240934610366,9.175227255821229 c0.7426073741912846,-0.12749584436416636 1.4952802097797395,-0.22926884293556227 2.273675891160965,-0.22926884293556227 c7.4115347421169275,0 13.419496811628342,6.006843684911728 13.419496811628342,13.418378427028655 S46.19825228943131,39.220738739222845 38.786717547314375,39.220738739222845 zM25.368339120285714,23.563354343623477 h11.181609227657317 l-6.709189213514327,11.18384599685669 h7.827573813199996 L23.131569920914377,52.639117166251495 l4.026184558868408,-13.418378427028655 h-7.381338357925415 L25.368339120285714,23.563354343623477 z" id="svg_1" class="selected" fill="#ffffff" fill-opacity="1"/></g></svg>